HIERARCHY
ROOT Hips
{
	OFFSET 0.000000 121.760803 0.000000
	CHANNELS 6 Xposition Yposition Zposition Xrotation Yrotation Zrotation 
	JOINT Spine
	{
		OFFSET 0.072000 7.257294 -0.789700
		CHANNELS 3 Xrotation Yrotation Zrotation
		JOINT Spine1
		{
			OFFSET 0.000000 12.508769 -0.658067
			CHANNELS 3 Xrotation Yrotation Zrotation
			JOINT Spine1_split
			{
				OFFSET 0.000000 12.508769 -0.658067
				CHANNELS 3 Xrotation Yrotation Zrotation
				JOINT Spine2
				{
					OFFSET 0.000000 12.508769 -0.658067
					CHANNELS 3 Xrotation Yrotation Zrotation
					JOINT Neck
					{
						OFFSET 0.000000 14.033295 7.520400
						CHANNELS 3 Xrotation Yrotation Zrotation
						JOINT Head
						{
							OFFSET 0.000000 8.198502 5.703100
							CHANNELS 3 Xrotation Yrotation Zrotation
							JOINT HeadTop_End
							{
								OFFSET 0.000000 17.760803 13.332701
								CHANNELS 3 Xrotation Yrotation Zrotation
								End Site
								{
									OFFSET 0.000000 0.000000 0.000000
								}
							}
						}
					}
					JOINT LeftShoulder
					{
						OFFSET 6.292450 5.785301 -0.669000
						CHANNELS 3 Xrotation Yrotation Zrotation
						JOINT LeftShoulder_split
						{
							OFFSET 6.292450 5.785301 -0.669000
							CHANNELS 3 Xrotation Yrotation Zrotation
							JOINT LeftArm
							{
								OFFSET 13.907140 -6.093903 1.965100
								CHANNELS 3 Xrotation Yrotation Zrotation
								JOINT LeftForeArm
								{
									OFFSET 34.140198 0.000000 0.000000
									CHANNELS 3 Xrotation Yrotation Zrotation
									JOINT LeftHand
									{
										OFFSET 40.960209 0.000000 0.000000
										CHANNELS 3 Xrotation Yrotation Zrotation
										JOINT LeftHandThumb1
										{
											OFFSET 10.006996 -7.170425 9.573125
											CHANNELS 3 Xrotation Yrotation Zrotation
											JOINT LeftHandThumb2
											{
												OFFSET 1.835007 -1.059448 1.059443
												CHANNELS 3 Xrotation Yrotation Zrotation
												JOINT LeftHandThumb3
												{
													OFFSET 2.112267 -1.219513 1.219518
													CHANNELS 3 Xrotation Yrotation Zrotation
													JOINT LeftHandThumb4
													{
														OFFSET 4.843811 -2.796570 2.796576
														CHANNELS 3 Xrotation Yrotation Zrotation
														End Site
														{
															OFFSET 0.000000 0.000000 0.000000
														}
													}
												}
											}
										}
										JOINT LeftHandIndex1
										{
											OFFSET 18.389847 -0.922348 4.596882
											CHANNELS 3 Xrotation Yrotation Zrotation
											JOINT LeftHandIndex2
											{
												OFFSET 4.711273 0.000000 0.000000
												CHANNELS 3 Xrotation Yrotation Zrotation
												JOINT LeftHandIndex3
												{
													OFFSET 2.886131 0.000000 0.000000
													CHANNELS 3 Xrotation Yrotation Zrotation
													JOINT LeftHandIndex4
													{
														OFFSET 6.145912 0.000000 0.000000
														CHANNELS 3 Xrotation Yrotation Zrotation
														End Site
														{
															OFFSET 0.000000 0.000000 0.000000
														}
													}
												}
											}
										}
										JOINT LeftHandMiddle1
										{
											OFFSET 18.013008 0.000000 0.000000
											CHANNELS 3 Xrotation Yrotation Zrotation
											JOINT LeftHandMiddle2
											{
												OFFSET 4.946693 0.000000 0.000000
												CHANNELS 3 Xrotation Yrotation Zrotation
												JOINT LeftHandMiddle3
												{
													OFFSET 3.342232 0.000000 0.000000
													CHANNELS 3 Xrotation Yrotation Zrotation
													JOINT LeftHandMiddle4
													{
														OFFSET 4.461754 0.000000 0.000000
														CHANNELS 3 Xrotation Yrotation Zrotation
														End Site
														{
															OFFSET 0.000000 0.000000 0.000000
														}
													}
												}
											}
										}
										JOINT LeftHandRing1
										{
											OFFSET 15.849892 -0.102921 -4.126150
											CHANNELS 3 Xrotation Yrotation Zrotation
											JOINT LeftHandRing2
											{
												OFFSET 3.527054 0.000000 0.000000
												CHANNELS 3 Xrotation Yrotation Zrotation
												JOINT LeftHandRing3
												{
													OFFSET 2.961098 0.000000 0.000000
													CHANNELS 3 Xrotation Yrotation Zrotation
													JOINT LeftHandRing4
													{
														OFFSET 4.927200 0.000000 0.000000
														CHANNELS 3 Xrotation Yrotation Zrotation
														End Site
														{
															OFFSET 0.000000 0.000000 0.000000
														}
													}
												}
											}
										}
										JOINT LeftHandPinky1
										{
											OFFSET 12.791824 -0.832031 -6.799156
											CHANNELS 3 Xrotation Yrotation Zrotation
											JOINT LeftHandPinky2
											{
												OFFSET 3.327133 0.000000 0.000000
												CHANNELS 3 Xrotation Yrotation Zrotation
												JOINT LeftHandPinky3
												{
													OFFSET 3.014900 0.000000 0.000000
													CHANNELS 3 Xrotation Yrotation Zrotation
													JOINT LeftHandPinky4
													{
														OFFSET 5.847786 0.000000 0.000000
														CHANNELS 3 Xrotation Yrotation Zrotation
														End Site
														{
															OFFSET 0.000000 0.000000 0.000000
														}
													}
												}
											}
										}
									}
								}
							}
						}
					}
					JOINT RightShoulder
					{
						OFFSET -6.292450 5.785301 -0.669000
						CHANNELS 3 Xrotation Yrotation Zrotation
						JOINT RightShoulder_split
						{
							OFFSET -6.292450 5.785301 -0.669000
							CHANNELS 3 Xrotation Yrotation Zrotation
							JOINT RightArm
							{
								OFFSET -13.907140 -6.093903 1.965100
								CHANNELS 3 Xrotation Yrotation Zrotation
								JOINT RightForeArm
								{
									OFFSET -34.140198 0.000000 0.000000
									CHANNELS 3 Xrotation Yrotation Zrotation
									JOINT RightHand
									{
										OFFSET -40.960209 0.000000 0.000000
										CHANNELS 3 Xrotation Yrotation Zrotation
										JOINT RightHandThumb1
										{
											OFFSET -10.007050 -7.170456 9.573117
											CHANNELS 3 Xrotation Yrotation Zrotation
											JOINT RightHandThumb2
											{
												OFFSET -1.835007 -1.059448 1.059443
												CHANNELS 3 Xrotation Yrotation Zrotation
												JOINT RightHandThumb3
												{
													OFFSET -2.112267 -1.219513 1.219518
													CHANNELS 3 Xrotation Yrotation Zrotation
													JOINT RightHandThumb4
													{
														OFFSET -4.843834 -2.796585 2.796590
														CHANNELS 3 Xrotation Yrotation Zrotation
														End Site
														{
															OFFSET 0.000000 0.000000 0.000000
														}
													}
												}
											}
										}
										JOINT RightHandIndex1
										{
											OFFSET -18.389870 -0.922424 4.596786
											CHANNELS 3 Xrotation Yrotation Zrotation
											JOINT RightHandIndex2
											{
												OFFSET -4.711273 0.000000 0.000000
												CHANNELS 3 Xrotation Yrotation Zrotation
												JOINT RightHandIndex3
												{
													OFFSET -2.886131 0.000000 0.000000
													CHANNELS 3 Xrotation Yrotation Zrotation
													JOINT RightHandIndex4
													{
														OFFSET -6.145920 0.000000 0.000000
														CHANNELS 3 Xrotation Yrotation Zrotation
														End Site
														{
															OFFSET 0.000000 0.000000 0.000000
														}
													}
												}
											}
										}
										JOINT RightHandMiddle1
										{
											OFFSET -18.013008 0.000000 0.000000
											CHANNELS 3 Xrotation Yrotation Zrotation
											JOINT RightHandMiddle2
											{
												OFFSET -4.946693 0.000000 0.000000
												CHANNELS 3 Xrotation Yrotation Zrotation
												JOINT RightHandMiddle3
												{
													OFFSET -3.342232 0.000000 0.000000
													CHANNELS 3 Xrotation Yrotation Zrotation
													JOINT RightHandMiddle4
													{
														OFFSET -4.461754 0.000000 0.000000
														CHANNELS 3 Xrotation Yrotation Zrotation
														End Site
														{
															OFFSET 0.000000 0.000000 0.000000
														}
													}
												}
											}
										}
										JOINT RightHandRing1
										{
											OFFSET -15.849876 -0.102936 -4.126237
											CHANNELS 3 Xrotation Yrotation Zrotation
											JOINT RightHandRing2
											{
												OFFSET -3.527054 0.000000 0.000000
												CHANNELS 3 Xrotation Yrotation Zrotation
												JOINT RightHandRing3
												{
													OFFSET -2.961098 0.000000 0.000000
													CHANNELS 3 Xrotation Yrotation Zrotation
													JOINT RightHandRing4
													{
														OFFSET -4.927200 0.000000 0.000000
														CHANNELS 3 Xrotation Yrotation Zrotation
														End Site
														{
															OFFSET 0.000000 0.000000 0.000000
														}
													}
												}
											}
										}
										JOINT RightHandPinky1
										{
											OFFSET -12.791786 -0.832077 -6.799222
											CHANNELS 3 Xrotation Yrotation Zrotation
											JOINT RightHandPinky2
											{
												OFFSET -3.327133 0.000000 0.000000
												CHANNELS 3 Xrotation Yrotation Zrotation
												JOINT RightHandPinky3
												{
													OFFSET -3.014900 0.000000 0.000000
													CHANNELS 3 Xrotation Yrotation Zrotation
													JOINT RightHandPinky4
													{
														OFFSET -5.847786 0.000000 0.000000
														CHANNELS 3 Xrotation Yrotation Zrotation
														End Site
														{
															OFFSET 0.000000 0.000000 0.000000
														}
													}
												}
											}
										}
									}
								}
							}
						}
					}
				}
			}
		}
	}
	JOINT LeftUpLeg
	{
		OFFSET 13.026900 -6.336304 -1.092800
		CHANNELS 3 Xrotation Yrotation Zrotation
		JOINT LeftLeg
		{
			OFFSET 0.524474 -46.096886 9.782700
			CHANNELS 3 Xrotation Yrotation Zrotation
			JOINT LeftFoot
			{
				OFFSET -0.524474 -53.427422 -12.948200
				CHANNELS 3 Xrotation Yrotation Zrotation
				JOINT LeftToeBase
				{
					OFFSET 0.192200 -14.009700 16.364100
					CHANNELS 3 Xrotation Yrotation Zrotation
					JOINT LeftToe_End
					{
						OFFSET -1.784700 -0.561700 9.474800
						CHANNELS 3 Xrotation Yrotation Zrotation
						End Site
						{
							OFFSET 0.000000 0.000000 0.000000
						}
					}
				}
			}
		}
	}
	JOINT RightUpLeg
	{
		OFFSET -12.883000 -6.336304 -1.092800
		CHANNELS 3 Xrotation Yrotation Zrotation
		JOINT RightLeg
		{
			OFFSET -0.524587 -46.096825 9.782800
			CHANNELS 3 Xrotation Yrotation Zrotation
			JOINT RightFoot
			{
				OFFSET 0.524587 -53.427383 -12.948300
				CHANNELS 3 Xrotation Yrotation Zrotation
				JOINT RightToeBase
				{
					OFFSET -0.192200 -14.009700 16.364100
					CHANNELS 3 Xrotation Yrotation Zrotation
					JOINT RightToe_End
					{
						OFFSET 1.784700 -0.561700 9.474800
						CHANNELS 3 Xrotation Yrotation Zrotation
						End Site
						{
							OFFSET 0.000000 0.000000 0.000000
						}
					}
				}
			}
		}
	}
}
MOTION
Frames: 4
Frame Time: 0.016667
0.482144 62.195183 15.711775 10.252146 1.274462 2.023968 6.860780 -1.833477 -1.449482 12.577064 -1.034805 -1.095899 0.000000 0.000000 0.000000 12.570155 -1.077110 -1.099538 -0.427479 -0.653576 -0.369724 -52.699865 2.125732 -7.829015 -0.000002 -0.000000 0.000001 2.038150 -12.501282 5.547275 0.000000 0.000000 0.000000 -60.008492 -29.861690 -11.556453 0.000000 -114.301242 -0.000011 -11.910100 -28.831301 34.008065 20.858795 4.366373 2.192830 0.280541 11.989277 -27.457530 -10.342413 22.892267 8.820831 -0.000003 0.000005 -0.000004 0.425213 1.444476 -13.828674 0.836200 3.018166 -30.964977 0.004673 -0.234193 2.285936 0.000001 -0.000000 0.000002 0.528402 5.942699 -8.228435 0.952405 3.203615 -33.106115 0.082047 0.978077 -9.590017 0.000000 -0.000000 0.000001 0.930010 7.386336 -10.768665 1.068080 3.374089 -35.122151 0.007244 0.291624 -2.846949 -0.000001 -0.000000 -0.000001 0.270930 7.579823 -14.433281 0.945469 3.192963 -32.981682 0.003036 -0.188820 1.842886 0.000000 -0.000000 0.000000 1.433087 10.850709 -3.496003 0.000000 0.000000 0.000000 -73.306870 34.141244 27.922122 0.000009 117.257833 0.000007 11.925570 3.902115 -19.976002 0.467972 9.476105 18.594367 2.135785 -23.166520 17.501147 -9.703684 -24.362245 -9.841071 0.000001 0.000002 0.000000 2.448389 2.152561 1.738840 0.603761 -2.295177 29.472498 0.000812 0.087266 -1.071329 -0.000001 -0.000001 -0.000002 -0.030326 -3.619541 -3.130918 1.500619 -3.425974 47.297755 0.001283 -0.109385 1.342970 -0.000001 -0.000000 -0.000000 0.239634 -6.342802 2.621637 0.613286 -2.311943 29.709465 0.060210 -0.747284 9.213457 -0.000000 -0.000001 -0.000001 -11.640135 -11.617289 13.904426 0.284063 -1.603169 20.094444 0.029769 -0.526295 6.474546 0.000000 -0.000001 -0.000000 -102.687017 -9.881949 11.214204 84.657504 5.124405 -0.518879 9.866707 -7.074043 -9.812331 -0.103114 -0.000000 0.000001 0.000000 0.000001 0.000000 -104.272099 13.735433 -8.837635 85.337654 -4.559364 -1.266357 11.282762 0.322405 11.010395 -0.191620 0.000005 0.000001 0.000000 0.000000 -0.000000 
0.499227 62.143356 15.645671 10.522096 1.379081 2.027110 7.086542 -1.797186 -1.447523 12.767371 -1.020628 -1.140127 0.000000 0.000000 0.000000 12.760487 -1.062330 -1.143888 1.301034 -0.746534 -0.517728 -52.329788 1.916441 -7.951305 -0.000001 0.000000 0.000000 2.068310 -12.394296 6.151572 0.000000 0.000000 0.000000 -58.624422 -28.929888 -12.183144 0.000030 -114.948040 0.000022 -11.192806 -27.755686 33.451121 20.859673 4.363819 2.192676 0.280845 11.988511 -27.457579 -10.341912 22.894422 8.821839 0.000003 -0.000001 -0.000003 0.424905 1.444533 -13.827440 0.836213 3.018190 -30.965216 0.004672 -0.234166 2.285692 0.000001 0.000000 -0.000000 0.528584 5.943464 -8.229843 0.952405 3.203614 -33.106108 0.082048 0.978068 -9.589927 -0.000000 -0.000000 0.000001 0.929983 7.386362 -10.768209 1.068077 3.374081 -35.122083 0.007248 0.291668 -2.847382 0.000000 0.000000 -0.000000 0.271094 7.580058 -14.432512 0.945447 3.192939 -32.981395 0.003034 -0.188794 1.842639 -0.000000 0.000000 0.000000 1.461473 11.134545 -3.330572 0.000000 0.000000 0.000000 -71.860475 33.821656 27.199862 0.000004 117.434461 -0.000000 12.138202 3.880009 -18.450882 0.466646 9.475918 18.593614 2.136573 -23.165287 17.504146 -9.701726 -24.360894 -9.839272 0.000002 0.000001 0.000001 2.449268 2.151589 1.737207 0.603724 -2.295114 29.471505 0.000819 0.087365 -1.072529 -0.000001 0.000002 0.000000 -0.030354 -3.619685 -3.131648 1.500582 -3.425933 47.297284 0.001280 -0.109411 1.343024 -0.000001 -0.000001 0.000000 0.239621 -6.342693 2.621587 0.613282 -2.311936 29.709431 0.060226 -0.747342 9.214181 -0.000000 -0.000002 -0.000000 -11.640350 -11.617688 13.902635 0.284038 -1.603103 20.093566 0.029764 -0.526248 6.473907 -0.000000 0.000000 -0.000000 -103.062855 -9.824204 11.089916 84.575623 5.166184 -0.514232 10.029188 -7.095355 -9.696329 -0.103114 -0.000000 0.000001 0.000000 -0.000000 0.000000 -104.591336 13.853247 -8.840672 85.292008 -4.656499 -1.268229 11.411730 0.350552 11.029720 -0.191620 0.000005 0.000001 0.000000 0.000000 -0.000000 
0.520547 62.084000 15.618785 10.811354 1.487792 2.057453 7.323582 -1.755083 -1.451361 12.972735 -0.981567 -1.186088 0.000000 0.000000 0.000000 12.966026 -1.022760 -1.189411 3.122157 -0.859578 -0.692141 -51.579341 1.594024 -8.096120 0.000000 0.000000 -0.000001 2.114938 -12.310444 6.918393 0.000000 0.000000 0.000000 -56.643876 -27.956569 -13.096903 -0.000020 -115.667696 -0.000021 -10.218832 -26.532478 32.956069 20.860419 4.360990 2.192171 0.281659 11.987408 -27.457767 -10.341476 22.896474 8.823435 -0.000000 -0.000000 0.000001 0.424578 1.444431 -13.825824 0.836221 3.018209 -30.965431 0.004669 -0.234105 2.285089 -0.000001 0.000000 -0.000000 0.528703 5.944117 -8.230284 0.952397 3.203599 -33.105958 0.082046 0.978062 -9.589865 -0.000001 0.000000 0.000000 0.929923 7.386425 -10.767141 1.068070 3.374069 -35.121953 0.007249 0.291746 -2.848151 0.000000 0.000000 0.000001 0.271289 7.580354 -14.431327 0.945429 3.192901 -32.980982 0.003036 -0.188757 1.842273 -0.000001 0.000000 -0.000000 1.487706 11.465027 -3.085988 0.000000 0.000000 0.000000 -69.923105 33.437888 26.381910 -0.000026 117.615994 0.000037 12.013539 4.096475 -16.866129 0.464869 9.475457 18.592480 2.137298 -23.163728 17.507021 -9.699698 -24.359409 -9.837463 -0.000000 0.000006 0.000000 2.450239 2.150667 1.735392 0.603675 -2.295026 29.470309 0.000818 0.087464 -1.073718 0.000001 0.000000 0.000000 -0.030383 -3.619792 -3.132373 1.500518 -3.425887 47.296325 0.001283 -0.109403 1.343038 -0.000000 -0.000001 -0.000000 0.239616 -6.342678 2.621544 0.613283 -2.311939 29.709366 0.060233 -0.747400 9.214950 -0.000000 -0.000000 -0.000000 -11.640430 -11.618170 13.900758 0.284003 -1.603013 20.092429 0.029758 -0.526198 6.473275 0.000000 -0.000002 -0.000000 -103.438229 -9.756200 10.960308 84.540031 5.209121 -0.514857 10.130111 -7.104960 -9.657996 -0.103114 -0.000002 0.000001 0.000000 -0.000001 -0.000000 -104.933549 14.018457 -8.863808 85.296960 -4.717134 -1.270056 11.496947 0.372705 11.068395 -0.191620 0.000004 0.000001 0.000000 -0.000001 0.000000 
0.539045 62.039948 15.621139 11.090274 1.589463 2.094767 7.559175 -1.709498 -1.459660 13.167882 -0.921942 -1.227743 0.000000 0.000000 0.000000 13.161520 -0.962647 -1.229827 4.847725 -0.977130 -0.865297 -50.472342 1.193751 -8.236326 0.000000 0.000000 -0.000001 2.167035 -12.215279 7.794459 0.000000 0.000000 0.000000 -54.283232 -27.085351 -14.223972 -0.000026 -116.372435 -0.000038 -9.191117 -25.254524 32.508378 20.860982 4.358170 2.190972 0.282792 11.986090 -27.457987 -10.341017 22.898296 8.825400 -0.000001 -0.000001 -0.000001 0.424238 1.444150 -13.823939 0.836227 3.018220 -30.965544 0.004669 -0.234021 2.284266 -0.000000 -0.000000 -0.000000 0.528790 5.944702 -8.230380 0.952391 3.203576 -33.105702 0.082044 0.978058 -9.589829 0.000000 0.000000 0.000000 0.929844 7.386548 -10.765688 1.068054 3.374059 -35.121820 0.007256 0.291846 -2.849119 -0.000001 0.000001 0.000000 0.271533 7.580725 -14.429900 0.945403 3.192870 -32.980566 0.003038 -0.188713 1.841836 -0.000003 0.000000 -0.000000 1.506031 11.775375 -2.798578 0.000000 0.000000 0.000000 -67.693609 33.040326 25.501042 -0.000004 117.763212 0.000004 11.410879 4.473174 -15.347879 0.463269 9.474903 18.591049 2.137465 -23.162046 17.507248 -9.697805 -24.358210 -9.835802 0.000001 0.000001 -0.000000 2.451267 2.149757 1.734119 0.603626 -2.294950 29.469162 0.000823 0.087554 -1.074839 -0.000000 0.000001 0.000001 -0.030371 -3.619859 -3.131874 1.500462 -3.425825 47.295211 0.001283 -0.109403 1.343047 0.000000 -0.000001 0.000000 0.239656 -6.342770 2.622041 0.613279 -2.311940 29.709369 0.060241 -0.747452 9.215662 0.000000 -0.000001 0.000000 -11.640136 -11.619117 13.900466 0.283971 -1.602926 20.091261 0.029755 -0.526146 6.472756 -0.000001 0.000001 -0.000000 -103.758380 -9.692599 10.848192 84.529513 5.240771 -0.520186 10.166551 -7.101045 -9.701369 -0.103114 -0.000001 0.000001 0.000000 -0.000001 0.000000 -105.238277 14.187963 -8.896636 85.326876 -4.749842 -1.269991 11.529371 0.383076 11.133949 -0.191620 0.000005 0.000001 0.000000 0.000000 -0.000000 
